<?xml version="1.0" encoding="UTF-8" standalone="no"?><!DOCTYPE svg PUBLIC "-//W3C//DTD SVG 1.1//EN" "http://www.w3.org/Graphics/SVG/1.1/DTD/svg11.dtd"><svg width="100%" height="100%" viewBox="0 0 256 164" version="1.1" xmlns="http://www.w3.org/2000/svg" xmlns:xlink="http://www.w3.org/1999/xlink" xml:space="preserve" xmlns:serif="http://www.serif.com/" style="fill-rule:evenodd;clip-rule:evenodd;stroke-linejoin:round;stroke-miterlimit:2;"><g id="buy1"><g><path d="M27.233,119.745c-4.751,-0.553 -7.652,-2.127 -8.702,-4.724c-1.049,-2.597 -1.077,-5.442 -0.083,-8.536l0,-67.293c-1.768,0 -3.342,-0.469 -4.723,-1.409c-1.382,-0.939 -2.487,-2.127 -3.315,-3.563c-0.829,-1.437 -1.243,-3.011 -1.243,-4.724c-0,-1.713 0.497,-3.287 1.491,-4.724c2.21,-3.315 5.056,-5.911 8.536,-7.79c3.481,-1.878 7.1,-3.425 10.857,-4.641c5.856,-1.878 11.74,-2.928 17.652,-3.149c5.911,-0.221 11.74,0.995 17.486,3.647c5.193,2.431 9.282,5.58 12.265,9.447c2.983,3.867 4.862,7.984 5.635,12.348c0.774,4.365 0.387,8.84 -1.16,13.426c-1.547,4.585 -4.309,8.867 -8.287,12.845c5.193,3.315 8.895,7.265 11.105,11.851c2.21,4.585 3.121,9.309 2.735,14.171c-0.387,4.862 -1.934,9.558 -4.641,14.088c-2.707,4.531 -6.382,8.453 -11.022,11.768c-2.763,1.989 -5.995,3.509 -9.697,4.558c-3.701,1.05 -7.513,1.796 -11.436,2.238c-3.923,0.442 -7.818,0.663 -11.685,0.663c-3.867,-0 -7.403,-0.111 -10.608,-0.332l-1.16,-0.165Zm35.304,-42.1c-1.989,-1.326 -3.923,-2.32 -5.801,-2.983c-1.879,-0.663 -3.785,-1.105 -5.719,-1.326c-1.933,-0.221 -3.895,-0.276 -5.883,-0.166c-1.989,0.111 -4.144,0.221 -6.465,0.332l0,26.519c2.431,-0 5.028,-0.083 7.79,-0.249c2.763,-0.165 5.415,-0.607 7.956,-1.326c2.542,-0.718 4.917,-1.74 7.127,-3.066c2.21,-1.326 3.978,-3.149 5.304,-5.47c0.332,-2.652 0.276,-4.944 -0.166,-6.878c-0.442,-1.934 -1.823,-3.729 -4.143,-5.387Zm-23.868,-25.525l5.967,0c1.989,0 3.951,-0.193 5.884,-0.58c1.934,-0.387 3.812,-1.022 5.636,-1.906c1.823,-0.884 3.453,-2.155 4.889,-3.812c2.1,-2.32 2.845,-4.779 2.238,-7.376c-0.608,-2.596 -2.183,-4.668 -4.724,-6.215c-2.873,-1.879 -6.133,-2.845 -9.779,-2.901c-3.646,-0.055 -7.017,0.359 -10.111,1.243l0,21.547Z" style="fill:#b7f1ff;fill-rule:nonzero;stroke:#b7f1ff;stroke-width:18.33px;"/><path d="M167.058,102.839c0.994,1.436 1.574,3.121 1.74,5.055c0.166,1.934 -0.055,3.757 -0.663,5.469c-0.608,1.713 -1.602,3.122 -2.983,4.227c-1.381,1.105 -3.177,1.602 -5.387,1.492c-2.873,-0.221 -5.193,-1.216 -6.961,-2.984c-1.768,-1.768 -3.426,-3.757 -4.973,-5.967c-4.309,3.536 -8.757,5.995 -13.342,7.376c-4.586,1.381 -9.089,1.685 -13.509,0.912c-4.419,-0.774 -8.563,-2.625 -12.43,-5.553c-3.868,-2.928 -7.128,-6.878 -9.779,-11.851c-2.431,-4.641 -3.785,-9.779 -4.061,-15.414c-0.276,-5.635 -0.359,-10.994 -0.249,-16.077c0,-1.768 0.055,-3.509 0.166,-5.221c0.11,-1.713 0.221,-3.509 0.331,-5.387c0.111,-1.437 0.166,-2.845 0.166,-4.227c0,-1.381 0.083,-2.679 0.249,-3.895c0.165,-1.215 0.497,-2.431 0.994,-3.646c0.497,-1.216 1.243,-2.376 2.238,-3.481c1.326,-1.436 2.928,-2.293 4.806,-2.569c1.879,-0.276 3.674,-0.083 5.387,0.58c1.713,0.663 3.205,1.685 4.475,3.067c1.271,1.381 1.962,3.066 2.072,5.055c0.221,5.635 0.083,11.326 -0.414,17.072c-0.497,5.746 -0.47,11.381 0.083,16.906c0.221,2.652 0.911,5.359 2.071,8.121c1.161,2.763 3.012,4.752 5.553,5.967c2.541,1.105 5.11,1.022 7.707,-0.248c2.597,-1.271 4.724,-2.79 6.381,-4.558c0.774,-0.884 1.52,-1.851 2.238,-2.901c0.718,-1.05 1.519,-1.961 2.403,-2.735c-0.442,-3.867 -0.718,-7.735 -0.829,-11.602c-0.11,-3.867 -0.11,-7.735 0,-11.602c0,-2.1 0.083,-4.392 0.249,-6.879c0.166,-2.486 0.608,-4.862 1.326,-7.127c0.718,-2.265 1.796,-4.254 3.232,-5.967c1.437,-1.712 3.481,-2.79 6.133,-3.232c1.215,-0.221 2.403,-0.11 3.563,0.332c1.16,0.442 2.183,1.05 3.067,1.823c1.547,1.326 2.596,2.818 3.149,4.475c0.552,1.658 0.828,3.426 0.828,5.304c0,1.879 -0.138,3.785 -0.414,5.718c-0.276,1.934 -0.47,3.73 -0.58,5.387c-0.221,3.094 -0.387,6.354 -0.497,9.779c-0.111,3.425 -0,6.851 0.331,10.276c0.332,3.426 0.967,6.741 1.906,9.945c0.94,3.204 2.348,6.133 4.227,8.785Z" style="fill:#b7f1ff;fill-rule:nonzero;stroke:#b7f1ff;stroke-width:18.33px;"/><path d="M227.325,42.673c1.326,-2.21 2.983,-3.729 4.972,-4.558c1.989,-0.829 3.95,-1.022 5.884,-0.58c1.934,0.442 3.646,1.436 5.138,2.983c1.492,1.547 2.403,3.591 2.735,6.133c0.221,1.878 -0.138,4.53 -1.077,7.956c-0.94,3.425 -2.1,6.961 -3.481,10.607c-1.381,3.647 -2.79,7.127 -4.227,10.442c-1.436,3.315 -2.596,5.912 -3.48,7.79c-3.757,8.288 -7.846,16.409 -12.265,24.365c-4.42,7.956 -8.951,15.856 -13.592,23.702c-0.663,1.215 -1.436,2.707 -2.32,4.475c-0.884,1.768 -1.796,3.591 -2.735,5.469c-0.939,1.879 -1.906,3.647 -2.9,5.304c-0.995,1.658 -1.934,2.873 -2.818,3.647c-1.989,1.878 -4.033,2.983 -6.133,3.315c-2.099,0.331 -4.005,0.055 -5.718,-0.829c-1.713,-0.884 -3.094,-2.265 -4.144,-4.144c-1.049,-1.878 -1.464,-4.143 -1.243,-6.795c0.111,-0.995 0.553,-2.293 1.326,-3.895c0.774,-1.603 1.658,-3.26 2.652,-4.973c0.995,-1.713 1.989,-3.342 2.984,-4.889c0.994,-1.547 1.768,-2.818 2.32,-3.812c2.21,-3.647 4.337,-7.293 6.381,-10.94c2.045,-3.646 4.116,-7.293 6.216,-10.939c-7.293,-6.077 -13.619,-12.845 -18.978,-20.304c-5.359,-7.458 -9.475,-15.663 -12.348,-24.613c-0.553,-1.547 -1.105,-3.094 -1.658,-4.641c-0.552,-1.547 -0.718,-3.149 -0.497,-4.807c0.221,-1.878 0.746,-3.563 1.575,-5.055c0.828,-1.492 1.906,-2.707 3.232,-3.646c1.326,-0.939 2.845,-1.464 4.558,-1.575c1.713,-0.11 3.453,0.276 5.221,1.16c1.436,0.774 2.569,1.851 3.398,3.232c0.828,1.382 1.519,2.873 2.071,4.476c0.553,1.602 1.023,3.232 1.409,4.889c0.387,1.658 0.857,3.149 1.409,4.475c4.42,10.939 11.105,20.276 20.055,28.011c3.205,-6.63 6.078,-13.287 8.619,-19.972c2.542,-6.685 4.807,-13.508 6.796,-20.47l0.663,-0.994Z" style="fill:#b7f1ff;fill-rule:nonzero;stroke:#b7f1ff;stroke-width:18.33px;"/></g><g><path d="M27.233,119.745c-4.751,-0.553 -7.652,-2.127 -8.702,-4.724c-1.049,-2.597 -1.077,-5.442 -0.083,-8.536l0,-67.293c-1.768,0 -3.342,-0.469 -4.723,-1.409c-1.382,-0.939 -2.487,-2.127 -3.315,-3.563c-0.829,-1.437 -1.243,-3.011 -1.243,-4.724c-0,-1.713 0.497,-3.287 1.491,-4.724c2.21,-3.315 5.056,-5.911 8.536,-7.79c3.481,-1.878 7.1,-3.425 10.857,-4.641c5.856,-1.878 11.74,-2.928 17.652,-3.149c5.911,-0.221 11.74,0.995 17.486,3.647c5.193,2.431 9.282,5.58 12.265,9.447c2.983,3.867 4.862,7.984 5.635,12.348c0.774,4.365 0.387,8.84 -1.16,13.426c-1.547,4.585 -4.309,8.867 -8.287,12.845c5.193,3.315 8.895,7.265 11.105,11.851c2.21,4.585 3.121,9.309 2.735,14.171c-0.387,4.862 -1.934,9.558 -4.641,14.088c-2.707,4.531 -6.382,8.453 -11.022,11.768c-2.763,1.989 -5.995,3.509 -9.697,4.558c-3.701,1.05 -7.513,1.796 -11.436,2.238c-3.923,0.442 -7.818,0.663 -11.685,0.663c-3.867,-0 -7.403,-0.111 -10.608,-0.332l-1.16,-0.165Zm35.304,-42.1c-1.989,-1.326 -3.923,-2.32 -5.801,-2.983c-1.879,-0.663 -3.785,-1.105 -5.719,-1.326c-1.933,-0.221 -3.895,-0.276 -5.883,-0.166c-1.989,0.111 -4.144,0.221 -6.465,0.332l0,26.519c2.431,-0 5.028,-0.083 7.79,-0.249c2.763,-0.165 5.415,-0.607 7.956,-1.326c2.542,-0.718 4.917,-1.74 7.127,-3.066c2.21,-1.326 3.978,-3.149 5.304,-5.47c0.332,-2.652 0.276,-4.944 -0.166,-6.878c-0.442,-1.934 -1.823,-3.729 -4.143,-5.387Zm-23.868,-25.525l5.967,0c1.989,0 3.951,-0.193 5.884,-0.58c1.934,-0.387 3.812,-1.022 5.636,-1.906c1.823,-0.884 3.453,-2.155 4.889,-3.812c2.1,-2.32 2.845,-4.779 2.238,-7.376c-0.608,-2.596 -2.183,-4.668 -4.724,-6.215c-2.873,-1.879 -6.133,-2.845 -9.779,-2.901c-3.646,-0.055 -7.017,0.359 -10.111,1.243l0,21.547Z" style="fill:#0097bb;fill-rule:nonzero;"/><path d="M167.058,102.839c0.994,1.436 1.574,3.121 1.74,5.055c0.166,1.934 -0.055,3.757 -0.663,5.469c-0.608,1.713 -1.602,3.122 -2.983,4.227c-1.381,1.105 -3.177,1.602 -5.387,1.492c-2.873,-0.221 -5.193,-1.216 -6.961,-2.984c-1.768,-1.768 -3.426,-3.757 -4.973,-5.967c-4.309,3.536 -8.757,5.995 -13.342,7.376c-4.586,1.381 -9.089,1.685 -13.509,0.912c-4.419,-0.774 -8.563,-2.625 -12.43,-5.553c-3.868,-2.928 -7.128,-6.878 -9.779,-11.851c-2.431,-4.641 -3.785,-9.779 -4.061,-15.414c-0.276,-5.635 -0.359,-10.994 -0.249,-16.077c0,-1.768 0.055,-3.509 0.166,-5.221c0.11,-1.713 0.221,-3.509 0.331,-5.387c0.111,-1.437 0.166,-2.845 0.166,-4.227c0,-1.381 0.083,-2.679 0.249,-3.895c0.165,-1.215 0.497,-2.431 0.994,-3.646c0.497,-1.216 1.243,-2.376 2.238,-3.481c1.326,-1.436 2.928,-2.293 4.806,-2.569c1.879,-0.276 3.674,-0.083 5.387,0.58c1.713,0.663 3.205,1.685 4.475,3.067c1.271,1.381 1.962,3.066 2.072,5.055c0.221,5.635 0.083,11.326 -0.414,17.072c-0.497,5.746 -0.47,11.381 0.083,16.906c0.221,2.652 0.911,5.359 2.071,8.121c1.161,2.763 3.012,4.752 5.553,5.967c2.541,1.105 5.11,1.022 7.707,-0.248c2.597,-1.271 4.724,-2.79 6.381,-4.558c0.774,-0.884 1.52,-1.851 2.238,-2.901c0.718,-1.05 1.519,-1.961 2.403,-2.735c-0.442,-3.867 -0.718,-7.735 -0.829,-11.602c-0.11,-3.867 -0.11,-7.735 0,-11.602c0,-2.1 0.083,-4.392 0.249,-6.879c0.166,-2.486 0.608,-4.862 1.326,-7.127c0.718,-2.265 1.796,-4.254 3.232,-5.967c1.437,-1.712 3.481,-2.79 6.133,-3.232c1.215,-0.221 2.403,-0.11 3.563,0.332c1.16,0.442 2.183,1.05 3.067,1.823c1.547,1.326 2.596,2.818 3.149,4.475c0.552,1.658 0.828,3.426 0.828,5.304c0,1.879 -0.138,3.785 -0.414,5.718c-0.276,1.934 -0.47,3.73 -0.58,5.387c-0.221,3.094 -0.387,6.354 -0.497,9.779c-0.111,3.425 -0,6.851 0.331,10.276c0.332,3.426 0.967,6.741 1.906,9.945c0.94,3.204 2.348,6.133 4.227,8.785Z" style="fill:#0097bb;fill-rule:nonzero;"/><path d="M227.325,42.673c1.326,-2.21 2.983,-3.729 4.972,-4.558c1.989,-0.829 3.95,-1.022 5.884,-0.58c1.934,0.442 3.646,1.436 5.138,2.983c1.492,1.547 2.403,3.591 2.735,6.133c0.221,1.878 -0.138,4.53 -1.077,7.956c-0.94,3.425 -2.1,6.961 -3.481,10.607c-1.381,3.647 -2.79,7.127 -4.227,10.442c-1.436,3.315 -2.596,5.912 -3.48,7.79c-3.757,8.288 -7.846,16.409 -12.265,24.365c-4.42,7.956 -8.951,15.856 -13.592,23.702c-0.663,1.215 -1.436,2.707 -2.32,4.475c-0.884,1.768 -1.796,3.591 -2.735,5.469c-0.939,1.879 -1.906,3.647 -2.9,5.304c-0.995,1.658 -1.934,2.873 -2.818,3.647c-1.989,1.878 -4.033,2.983 -6.133,3.315c-2.099,0.331 -4.005,0.055 -5.718,-0.829c-1.713,-0.884 -3.094,-2.265 -4.144,-4.144c-1.049,-1.878 -1.464,-4.143 -1.243,-6.795c0.111,-0.995 0.553,-2.293 1.326,-3.895c0.774,-1.603 1.658,-3.26 2.652,-4.973c0.995,-1.713 1.989,-3.342 2.984,-4.889c0.994,-1.547 1.768,-2.818 2.32,-3.812c2.21,-3.647 4.337,-7.293 6.381,-10.94c2.045,-3.646 4.116,-7.293 6.216,-10.939c-7.293,-6.077 -13.619,-12.845 -18.978,-20.304c-5.359,-7.458 -9.475,-15.663 -12.348,-24.613c-0.553,-1.547 -1.105,-3.094 -1.658,-4.641c-0.552,-1.547 -0.718,-3.149 -0.497,-4.807c0.221,-1.878 0.746,-3.563 1.575,-5.055c0.828,-1.492 1.906,-2.707 3.232,-3.646c1.326,-0.939 2.845,-1.464 4.558,-1.575c1.713,-0.11 3.453,0.276 5.221,1.16c1.436,0.774 2.569,1.851 3.398,3.232c0.828,1.382 1.519,2.873 2.071,4.476c0.553,1.602 1.023,3.232 1.409,4.889c0.387,1.658 0.857,3.149 1.409,4.475c4.42,10.939 11.105,20.276 20.055,28.011c3.205,-6.63 6.078,-13.287 8.619,-19.972c2.542,-6.685 4.807,-13.508 6.796,-20.47l0.663,-0.994Z" style="fill:#0097bb;fill-rule:nonzero;"/></g></g></svg>